<svg width="56" height="56" viewBox="0 0 56 56" fill="none" xmlns="http://www.w3.org/2000/svg">
<g clip-path="url(#clip0_1334_4034)">
<g clip-path="url(#clip1_1334_4034)">
<path d="M47.3045 35.6105C47.3045 35.6105 47.2401 35.212 47.2034 35.2156L40.0632 35.913C39.7897 35.9395 39.5342 36.0631 39.3421 36.2621C39.1501 36.461 39.0338 36.7224 39.0139 36.9999L38.8171 39.8475L33.2933 40.247L32.9176 37.6674C32.8749 37.3882 32.7351 37.1336 32.5233 36.9496C32.3115 36.7656 32.0418 36.6642 31.7627 36.6639H24.2297C23.9508 36.6654 23.6816 36.7677 23.4705 36.9523C23.2595 37.137 23.1204 37.3919 23.0785 37.6711L22.7019 40.2506L17.1816 39.8512L16.9857 37.0035C16.9658 36.726 16.8495 36.4647 16.6575 36.2657C16.4654 36.0668 16.2099 35.9431 15.9364 35.9166L8.79256 35.2192C8.75589 35.2192 8.72816 35.6141 8.69148 35.6141L8.68164 37.1792L14.7323 38.1665L14.9309 41.0386C14.9516 41.3205 15.0712 41.5857 15.268 41.7862C15.4649 41.9867 15.7261 42.1093 16.0044 42.1318L23.6125 42.6807C23.6411 42.6807 23.6697 42.6807 23.702 42.6807C23.9805 42.679 24.2493 42.5767 24.46 42.3922C24.6707 42.2077 24.8095 41.9532 24.8514 41.6744L25.2325 39.0188H30.7608L31.1473 41.6744C31.1894 41.9536 31.3287 42.2084 31.5399 42.3929C31.7511 42.5773 32.0205 42.6794 32.2994 42.6807C32.3272 42.6807 32.3549 42.6807 32.3826 42.6807L39.9925 42.1282C40.2708 42.1056 40.532 41.983 40.7289 41.7825C40.9257 41.5821 41.0453 41.3169 41.066 41.035L41.2637 38.1629L47.3108 37.1711L47.3045 35.6105Z" fill="white"/>
<path d="M8.6899 23.8259V35.6213C8.71105 35.62 8.73226 35.62 8.75341 35.6213L15.8981 36.3179C16.0797 36.3359 16.2491 36.4186 16.3761 36.5514C16.5031 36.6841 16.5794 36.8581 16.5914 37.0424L16.8115 40.2406L23.042 40.6935L23.4714 37.7462C23.4982 37.5614 23.5898 37.3926 23.7294 37.2706C23.869 37.1485 24.0473 37.0814 24.2317 37.0814H31.7692C31.9536 37.0814 32.1319 37.1485 32.2715 37.2706C32.4111 37.3926 32.5027 37.5614 32.5295 37.7462L32.9589 40.6935L39.1876 40.2406L39.4077 37.0479C39.4197 36.8635 39.4961 36.6895 39.623 36.5568C39.75 36.4241 39.9194 36.3413 40.101 36.3233L47.2412 35.6268C47.2624 35.6254 47.2836 35.6254 47.3047 35.6268V34.6821V23.8268H47.3316C48.2894 22.5823 49.1782 21.2847 49.9937 19.9403C48.8782 18.0183 47.5114 16.2992 46.0506 14.7087C44.7039 15.3994 43.3981 16.1688 42.1396 17.0129C41.5134 16.3871 40.8175 15.8753 40.1287 15.34C39.456 14.7894 38.6947 14.3872 37.9719 13.918C38.1803 12.2974 38.3018 10.6665 38.336 9.03248C36.4718 8.08689 34.4832 7.45287 32.4723 7C31.6668 8.38771 30.9401 9.8208 30.2959 11.2923C29.5403 11.1724 28.7768 11.1118 28.0121 11.1111H27.9978H27.9835C27.2187 11.1118 26.4552 11.1724 25.6997 11.2923C25.0563 9.82037 24.3296 8.38722 23.5232 7C21.5141 7.45287 19.5246 8.08689 17.6622 9.03248C17.6956 10.6665 17.8171 12.2974 18.0263 13.918C17.3026 14.3872 16.5422 14.7903 15.8659 15.34C15.1789 15.8762 14.4767 16.3871 13.8541 17.0129C12.5958 16.1676 11.2892 15.3982 9.94137 14.7087C8.48057 16.301 7.1146 18.0183 6 19.9403C6.81526 21.285 7.70403 22.5825 8.66217 23.8268L8.6899 23.8259Z" fill="#478CBF"/>
<path d="M40.9008 37.8014L40.6798 41.0104C40.6675 41.1984 40.5881 41.3756 40.4565 41.5088C40.3249 41.6421 40.1499 41.7225 39.9642 41.735L32.3552 42.2848C32.3364 42.2848 32.3176 42.2848 32.2997 42.2848C32.1153 42.2848 31.937 42.2177 31.7974 42.0956C31.6578 41.9735 31.5662 41.8047 31.5394 41.62L31.1028 38.6247H24.8965L24.4608 41.62C24.4325 41.8143 24.3326 41.9905 24.1814 42.1135C24.0301 42.2364 23.8385 42.2969 23.645 42.283L16.0351 41.7332C15.8495 41.7205 15.6746 41.64 15.5431 41.5068C15.4115 41.3736 15.332 41.1966 15.3195 41.0086L15.0985 37.7996L8.6748 37.1719C8.6748 37.8711 8.68643 38.6365 8.68643 38.7895C8.68643 45.6568 17.2911 48.9601 27.9836 48.9981H28.0095C38.702 48.9601 47.3048 45.6586 47.3048 38.7895C47.3048 38.6337 47.3138 37.8711 47.3174 37.1719L40.9008 37.8014Z" fill="#478CBF"/>
<path d="M22.1775 28.6138C22.178 29.4759 21.926 30.3189 21.4533 31.036C20.9806 31.7531 20.3084 32.3122 19.5218 32.6424C18.7353 32.9727 17.8697 33.0593 17.0345 32.8914C16.1993 32.7235 15.432 32.3085 14.8298 31.699C14.2275 31.0895 13.8174 30.3128 13.6512 29.4672C13.485 28.6216 13.5702 27.7451 13.896 26.9486C14.2219 26.152 14.7737 25.4713 15.4818 24.9923C16.1899 24.5134 17.0223 24.2579 17.8738 24.2581C19.0148 24.2583 20.1091 24.7172 20.9161 25.534C21.723 26.3507 22.1768 27.4585 22.1775 28.6138Z" fill="white"/>
<path d="M21.1478 28.8609C21.148 29.4334 20.9805 29.993 20.6665 30.469C20.3525 30.945 19.9061 31.3161 19.3839 31.5352C18.8616 31.7544 18.2868 31.8118 17.7324 31.7001C17.1779 31.5885 16.6685 31.3129 16.2688 30.9081C15.869 30.5033 15.5968 29.9876 15.4865 29.4262C15.3763 28.8648 15.4329 28.2828 15.6494 27.754C15.8658 27.2252 16.2323 26.7732 16.7024 26.4553C17.1726 26.1374 17.7253 25.9678 18.2906 25.968C18.6659 25.9679 19.0374 26.0426 19.3841 26.188C19.7308 26.3333 20.0459 26.5464 20.3112 26.8151C20.5765 27.0837 20.787 27.4027 20.9305 27.7537C21.0741 28.1048 21.1479 28.481 21.1478 28.8609Z" fill="#414042"/>
<path d="M28.0058 33.366C27.2409 33.366 26.6201 32.7954 26.6201 32.0917V28.0792C26.6201 27.3755 27.2409 26.804 28.0058 26.804C28.7706 26.804 29.3932 27.3755 29.3932 28.0792V32.0889C29.3932 32.7927 28.7715 33.3633 28.0058 33.3633" fill="white"/>
<path d="M33.8203 28.6138C33.8196 29.4761 34.0715 30.3192 34.5441 31.0366C35.0167 31.7539 35.6888 32.3132 36.4754 32.6437C37.2621 32.9743 38.1278 33.0612 38.9632 32.8934C39.7986 32.7257 40.5661 32.3109 41.1686 31.7015C41.7711 31.0921 42.1816 30.3154 42.3481 29.4697C42.5146 28.6241 42.4297 27.7474 42.1041 26.9506C41.7784 26.1538 41.2267 25.4727 40.5188 24.9934C39.8108 24.5142 38.9783 24.2582 38.1267 24.2581C36.9852 24.2578 35.8904 24.7165 35.0829 25.5333C34.2754 26.35 33.8213 27.4581 33.8203 28.6138Z" fill="white"/>
<path d="M34.8633 28.8609C34.8633 29.4332 35.0309 29.9925 35.3449 30.4683C35.6589 30.944 36.1051 31.3148 36.6273 31.5337C37.1494 31.7527 37.7239 31.8099 38.2782 31.6982C38.8325 31.5865 39.3416 31.3109 39.7411 30.9062C40.1407 30.5016 40.4127 29.986 40.5228 29.4248C40.633 28.8635 40.5763 28.2818 40.3599 27.7532C40.1435 27.2246 39.7772 26.7729 39.3072 26.4551C38.8372 26.1374 38.2847 25.9678 37.7196 25.968C37.3444 25.9679 36.9728 26.0427 36.6262 26.188C36.2795 26.3334 35.9646 26.5465 35.6993 26.8151C35.434 27.0838 35.2237 27.4028 35.0802 27.7538C34.9368 28.1048 34.863 28.4811 34.8633 28.8609Z" fill="#414042"/>
</g>
</g>
<defs>
<clipPath id="clip0_1334_4034">
<rect width="56" height="56" fill="white"/>
</clipPath>
<clipPath id="clip1_1334_4034">
<rect width="44" height="42" fill="white" transform="translate(6 7)"/>
</clipPath>
</defs>
</svg>
